https://sharemania.us/

Red Hot Chili Peppers - Black Summer - The Tonight Show with Jimmy Fallon 2022-04-01 1080i HDTV Backhaul MPA2.0 H.264

General
ID                             : 1 (0x1)
Complete name                  : D:\Downloads\Red Hot Chili Peppers - Black Summer - The Tonight Show with Jimmy Fallon 2022-04-01 1080i HDTV Backhaul MPA2.0 H.264.ts
Format                         : MPEG-TS
File size                      : 719 MiB
Duration                       : 4 min 19 s
Overall bit rate mode          : Variable
Overall bit rate               : 23.2 Mb/s
Movie name                     : Tonight Show Jimmy Fallon
Law rating                     : TV-14 (L)

Video
ID                             : 514 (0x202)
Menu ID                        : 6 (0x6)
Format                         : AVC
Format/Info                    : Advanced Video Codec
Format profile                 : High@L4.1
Format settings                : CABAC / 4 Ref Frames
Format settings, CABAC         : Yes
Format settings, Reference fra : 4 frames
Codec ID                       : 27
Duration                       : 4 min 19 s
Bit rate                       : 21.7 Mb/s
Width                          : 1 920 pixels
Height                         : 1 080 pixels
Display aspect ratio           : 16:9
Frame rate                     : 29.970 (30000/1001) FPS
Color space                    : YUV
Chroma subsampling             : 4:2:0
Bit depth                      : 8 bits
Scan type                      : Interlaced
Scan type, store method        : Separated fields
Scan order                     : Top Field First
Bits/(Pixel*Frame)             : 0.349
Stream size                    : 671 MiB (93%)
Color range                    : Limited
Color primaries                : BT.709
Transfer characteristics       : BT.709
Matrix coefficients            : BT.709

Audio
ID                             : 771 (0x303)
Menu ID                        : 6 (0x6)
Format                         : MPEG Audio
Format version                 : Version 1
Format profile                 : Layer 2
Format settings                : Dual mono
Codec ID                       : 3
Duration                       : 4 min 19 s
Bit rate mode                  : Constant
Bit rate                       : 384 kb/s
Channel(s)                     : 2 channels
Sampling rate                  : 48.0 kHz
Frame rate                     : 41.667 FPS (1152 SPF)
Compression mode               : Lossy
Delay relative to video        : -33 ms
Stream size                    : 11.9 MiB (2%)
Language                       : aaa

Text #1
ID                             : 514 (0x202)-CC1
Menu ID                        : 6 (0x6)
Format                         : EIA-608
Muxing mode                    : SCTE 128 / DTVCC Transport
Muxing mode, more info         : Muxed in Video #1
Duration                       : 4 min 19 s
Bit rate mode                  : Constant
Stream size                    : 0.00 Byte (0%)
CaptionServiceName             : CC1

Text #2
ID                             : 514 (0x202)-CC3
Menu ID                        : 6 (0x6)
Format                         : EIA-608
Muxing mode                    : SCTE 128 / DTVCC Transport
Muxing mode, more info         : Muxed in Video #1
Duration                       : 4 min 19 s
Bit rate mode                  : Constant
Stream size                    : 0.00 Byte (0%)
CaptionServiceName             : CC3

Text #3
ID                             : 514 (0x202)-1
Menu ID                        : 6 (0x6)
Format                         : EIA-708
Muxing mode                    : SCTE 128 / DTVCC Transport
Muxing mode, more info         : Muxed in Video #1
Duration                       : 4 min 19 s
Bit rate mode                  : Constant
Stream size                    : 0.00 Byte (0%)

Text #4
ID                             : 514 (0x202)-3
Menu ID                        : 6 (0x6)
Format                         : EIA-708
Muxing mode                    : SCTE 128 / DTVCC Transport
Muxing mode, more info         : Muxed in Video #1
Duration                       : 4 min 19 s
Bit rate mode                  : Constant
Stream size                    : 0.00 Byte (0%)
